<svg width="171" height="80" xmlns="http://www.w3.org/2000/svg"><defs><linearGradient x1="50%" y1="0%" x2="50%" y2="100%" id="a"><stop stop-color="#ED1500" offset="0%"/><stop stop-color="#D70900" offset="100%"/></linearGradient></defs><path d="m157.698 75.7.06-.06v2.12c-.786.726-1.21.968-1.937.968-.848 0-1.453-.303-1.453-1.272 0-1.453 1.574-1.816 2.422-1.816.121 0 .606.06.908.06Zm-88.78 0c.06.06.12.06.18-.06v2.059c-.665.787-1.392 1.03-1.997 1.03-.788 0-1.393-.243-1.393-1.212 0-1.453 1.453-1.877 2.361-1.877.122 0 .545 0 .848.06Zm-7.752.545c0 1.999-1.514 2.241-2.847 2.241-.12 0-.726 0-1.03-.06v-4.3c.364.06.97 0 1.151 0 1.514 0 2.726.302 2.726 2.12ZM47.055 73.4V78c-.424.485-1.15.667-1.514.667-2.06 0-2.604-1.454-2.604-2.968 0-1.393.727-3.088 2.543-3.088.485 0 1.151.12 1.575.787Zm-9.81-.727c.484.06 1.453 1.09 1.453 1.635v.303h-4.482v-.182c.364-1.271 1.211-1.816 2.302-1.816.12 0 .484 0 .726.06Zm68.674 2.907c0 1.211-.363 3.089-2.24 3.089-1.938 0-2.12-1.938-2.12-3.028s.303-3.089 2.18-3.089c1.878 0 2.18 1.877 2.18 3.028Zm37.063-4.118v8.357h-1.453v-7.146h-1.151v-1.211h2.604Zm-118.576 0v8.357h-1.514v-7.146h-1.15v-1.211h2.664Zm100.106 4.724h-3.21l1.696-4.785 1.514 4.785Zm33.49-4.482c.787.303 1.332 1.817 1.332 2.483v3.937c.06.363.181.787.666 1.09v.726h-.727c-.484-.12-1.211-.545-1.332-1.03-.424.728-1.999 1.091-2.665 1.091-1.514 0-2.422-1.272-2.422-2.544 0-2.24 2.422-3.028 3.876-3.028.12 0 .666.122 1.03.182.06-.06.06-.182.06-.303 0-1.332-1.03-1.695-1.878-1.695-.605 0-1.514.181-1.998.726-.242-.363-.666-1.03-.666-1.21 0-.122.545-.425.787-.485a3.488 3.488 0 0 1 1.03-.303c.181-.06.666-.06.787-.06.666 0 1.514.181 2.12.423Zm-6.36.424a27.71 27.71 0 0 1-.666 1.03c-.847-.485-1.271-.606-1.998-.606-2.12 0-2.604 1.817-2.604 3.15 0 1.755.848 3.027 2.664 3.027.606 0 1.514-.363 2.06-.787l.605 1.211c-.484.424-2.18.848-2.967.848-1.575 0-3.331-.969-3.876-3.21 0-.12-.06-.363-.06-.484v-1.15c.241-2.847 2.3-3.877 4.238-3.877.788 0 1.878.364 2.604.848Zm-11.93-.727-.545 1.454c-.303-.121-.908-.303-1.03-.303-.968 0-1.937 1.09-1.937 1.938v5.33h-1.514V71.46h1.514c0 .363 0 .787.06 1.15.485-1.029 1.575-1.332 2.302-1.332.181 0 .787.06 1.15.121Zm-25.496.122c-.181.484-.363.908-.545 1.332-.303-.121-.908-.303-1.03-.303-.968 0-1.937 1.09-1.937 1.938v5.33h-1.514V71.46h1.514c0 .363 0 .787.06 1.15.485-1.029 1.575-1.332 2.302-1.332.363 0 1.15.243 1.15.243Zm-6.722 4.057c0 2.12-.908 4.421-3.755 4.421-2.785 0-3.815-2.301-3.815-4.42 0-2.242 1.272-4.3 3.815-4.3 2.907 0 3.755 2.24 3.755 4.3Zm-29.916-4.24c1.029 0 1.998 1.515 1.998 2.423v6.056h-1.453v-5.51c-.061-1.272-.788-1.757-1.696-1.757-.182 0-.303-.06-.363 0-.364.06-1.636.606-1.636 1.09v6.177h-1.453v-8.357h1.03c.12.303.302.666.423.969.606-.848 1.575-1.15 2.423-1.15.121 0 .484.06.727.06Zm-7.268 1.575c.06.303.303.788.303.97v3.936c.121.363.06 1.03.666 1.393v.726h-.666c-.424-.06-1.211-.423-1.332-1.03-.364.728-2.12 1.091-2.725 1.091-1.454 0-2.423-1.272-2.423-2.544 0-2.24 2.423-3.028 3.876-3.028.121 0 .727.122 1.09.182.06-.06.06-.06.06-.242 0-1.211-.847-1.756-1.877-1.756-.726 0-1.332.12-1.998.726-.303-.181-.606-.908-.727-1.21.606-.485 1.817-.849 2.665-.849.848 0 2.664.243 3.088 1.635Zm-30.098 1.938c0 .122 0 .606-.06.909h-6.057v.484c.121 1.696 1.393 2.483 2.665 2.483.666 0 1.272-.181 2.059-.726.242.302.424.666.666 1.029-.424.545-2.301.969-3.028.969-2.664 0-3.936-2.18-3.936-4.3 0-2.24 1.393-4.42 3.936-4.42 2.241 0 3.755 1.271 3.755 3.572Zm-21.56-3.33c.182.06.667.545.848.787.061 0 .545 1.211.545 1.453v6.056h-1.453v-5.51c-.242-1.394-.727-1.757-1.696-1.757-.666 0-1.332.242-1.998 1.09v6.177h-1.454v-8.357h1.03c.121.303.303.666.424.969.605-.848 1.574-1.15 2.422-1.15.121 0 .909.06 1.333.242Zm41.908-.364c0 1.575-1.332 1.756-2.362 1.756h-.908v-3.27h.969c.908 0 2.301 0 2.301 1.514Zm-31.794.303h2.301v1.15h-2.3v4.724c.302 1.09.726 1.393 1.453 1.393.181 0 .847-.181 1.21-.303.061.424.182.909.243 1.333-.666.12-1.877.242-2.059.242-1.272 0-2.362-1.211-2.362-2.362v-5.026h-.969V71.46h.97v-1.756c.484-.182 1.029-.424 1.513-.545v2.301ZM4.724 68.372v7.752c.242 1.817 1.21 2.483 2.422 2.483 1.03 0 1.999-.484 2.483-1.877v-8.358h1.575v8.54C10.84 79.454 8.72 80 7.146 80c-1.272 0-2.967-.363-3.694-1.998-.121-.364-.242-.97-.242-1.09v-8.54h1.514Zm138.5.788c0 .605-.363.969-.908.969-.606 0-.908-.545-.908-.909 0-.605.302-.908.908-.908.545 0 .909.303.909.848Zm-118.576 0c0 .605-.545.969-.969.969-.605 0-.908-.545-.908-.909 0-.605.484-.908.908-.908.545 0 .97.303.97.848Zm37.547 1.877c0 .848-.423 1.696-1.635 2.301l-.06.121c1.756.364 2.422 1.696 2.422 3.028 0 .122-.121.667-.182.97-.181 1.332-2.3 2.361-3.33 2.361h-3.755V68.251H58.5c1.635 0 3.694.485 3.694 2.786Zm61.045-2.846 4.36 11.627h-1.756a38.434 38.434 0 0 0-.848-2.422h-4.118a19.676 19.676 0 0 0-.908 2.422h-1.757c1.514-3.876 3.089-7.751 4.603-11.627h.424Zm10.356.06c-.06.121-.424 1.09-.485 1.09-.181 0-.605-.12-.787-.12-1.09 0-1.575.968-1.575 1.816 0 .121.061.242.061.424h1.696v1.211h-1.696v7.146h-1.454v-7.146h-1.21v-1.211h1.21c-.06-1.999.97-3.452 2.847-3.452.121 0 .908.121 1.393.242Zm-34.096 0-.363 1.09a4.748 4.748 0 0 0-.848-.12c-.666 0-1.574.665-1.574 1.392v.848h1.756v1.211h-1.756v7.146H95.26v-7.146H94.05v-1.211h1.211c0-2.06 1.03-3.452 2.846-3.452.182 0 .97.121 1.393.242Zm-16.29-.242v7.207l3.149-3.755h1.756l-2.604 3.15 3.21 5.207h-1.636l-2.604-4.178c-.363.424-.847.908-1.271 1.332v2.846h-1.514V68.01h1.514Zm-34.64 0v11.81h-1.454c0-.182 0-.364-.06-.546-.727.545-1.454.666-2.18.666-2.666 0-3.574-2.24-3.574-4.118 0-1.877 1.272-4.542 3.876-4.542.424 0 1.453.182 1.938.545V68.01h1.453Zm7.57-28.584c3.572.787 5.147 2.785 5.147 5.571 0 .121-.06 1.272-.242 1.878-.182.605-.515 1.14-1.09 1.877-1.79 2.291-5.209 4.118-7.328 4.118H46.57c.969-4.42 1.817-8.963 2.786-13.323 0-.121.06-.182.181-.242l4.603-.121c.12 0 1.332.12 1.998.242Zm40.15 5.087H85.33l7.993-12.233 2.968 12.233ZM62.317 28.584c0 .122-.242 1.272-.302 1.878-.121 1.272-1.272 3.149-2.968 4.179-.605.363-3.088 1.816-3.452 1.816h-5.39c.182-.969.364-1.998.545-2.967.122-.606.303-1.272.364-1.878.12-.605.303-1.271.363-1.877.121-.605.303-1.272.363-1.877.122-.606.172-.939.303-1.878.132-1.08.05-1.12.666-1.09l4.542-.12c1.938 0 4.966 1.029 4.966 3.814Zm35.973-8.6 9.084 37.366h-8.175l-1.454-7.327H81.938l-4.845 7.327H70.31l25.314-37.365h2.665Zm-36.154 0c5.45.607 7.994 3.15 7.994 7.39 0 4.541-3.15 7.933-8.66 9.75.06.06.181.06.242.06 4.057.606 6.964 2.967 6.964 6.662 0 5.874-3.633 11.324-11.506 13.08-.364.061-2.786.546-3.634.546H38.092l7.813-37.487h16.23Zm-49.236 0c-.605 3.21-1.271 6.239-1.877 9.267a231.88 231.88 0 0 0-1.393 6.903c-.606 3.392-1.575 6.662-1.575 10.053 0 3.695 1.212 7.025 5.996 7.025 4.602 0 9.145-3.028 10.598-9.205 1.877-7.994 3.452-16.048 5.148-24.042h6.903v.182c-1.938 8.78-3.754 17.562-5.753 26.283-1.06 2.755-1.529 3.194-2.362 4.3-3.633 5.026-8.478 6.661-12.657 7.146-.484.06-1.332.181-1.514.181H10.72a23.634 23.634 0 0 1-2.18-.303 25.276 25.276 0 0 1-2.06-.484C1.818 56.14 0 51.658 0 48.327v-1.453c.06-.424.06-.909.121-1.393 1.756-8.479 3.513-17.018 5.269-25.496h7.51ZM138.44 57.109c-.969.121-2.846.364-3.028.364h-15.08L130.508 9.69a3823.138 3823.138 0 0 1 15.927 31.49c.908 2.302 1.756 4.785 1.756 7.147 0 5.269-3.694 7.812-9.75 8.781Zm21.68-9.326a2537.49 2537.49 0 0 1-9.204-18.047c-1.696-3.33-3.392-6.783-5.088-10.053-.545-1.15-1.15-2.18-1.635-3.27-.545-1.211-1.756-4.905-1.756-6.662V8.48c.06-.606.121-1.333.303-1.878 1.817-5.753 8.539-6.298 12.536-6.6L170.356 0 160.12 47.782Z" fill="url(#a)" fill-rule="evenodd"/></svg>